<mxfile host="app.diagrams.net" modified="2024-02-03T06:57:45.218Z" agent="Mozilla/5.0 (Windows NT 10.0; Win64; x64) AppleWebKit/537.36 (KHTML, like Gecko) Chrome/121.0.0.0 Safari/537.36" version="22.1.21" etag="bKD7i21uvMga53p0qAG0" type="github">
  <diagram name="Page-1" id="i9prJ7si5MrcSC6HtCTI">
    <mxGraphModel>
      <root>
        <mxCell id="0" />
        <mxCell id="1" parent="0" />
      </root>
    </mxGraphModel>
  </diagram>
</mxfile>
